<svg xmlns="http://www.w3.org/2000/svg" xmlns:xlink="http://www.w3.org/1999/xlink" viewBox="0 0 1500 1500" width="1500" height="1500" preserveAspectRatio="xMidYMid meet" style="width: 100%; height: 100%; transform: translate3d(0px, 0px, 0px); content-visibility: visible;"><defs><clipPath id="__lottie_element_19803"><rect width="1500" height="1500" x="0" y="0"></rect></clipPath></defs><g clip-path="url(#__lottie_element_19803)"><g transform="matrix(1.1606379747390747,0,0,1.1604059934616089,935.1449584960938,869.1795043945312)" opacity="1" style="display: block;"><g opacity="1" transform="matrix(1,0,0,1,0,0)"><path fill="rgb(229,154,3)" fill-opacity="1" d=" M-196.40899658203125,-119.63999938964844 C-196.40899658203125,-119.63999938964844 192.5850067138672,-291.0459899902344 192.5850067138672,-291.0459899902344 C192.5850067138672,-291.0459899902344 196.40899658203125,119.63999938964844 196.40899658203125,119.63999938964844 C196.40899658203125,119.63999938964844 -192.42100524902344,287.135986328125 -192.42100524902344,287.135986328125 C-192.42100524902344,287.135986328125 -196.40899658203125,-119.63999938964844 -196.40899658203125,-119.63999938964844z"></path></g></g><g transform="matrix(1.1606379747390747,0,0,1.1604059934616089,526.67236328125,850.668701171875)" opacity="1" style="display: block;"><g opacity="1" transform="matrix(1,0,0,1,0,0)"><path fill="rgb(255,176,0)" fill-opacity="1" d=" M159.50999450683594,303.0780029296875 C159.50999450683594,303.0780029296875 -155.56199645996094,103.697998046875 -155.56199645996094,103.697998046875 C-155.56199645996094,103.697998046875 -157.89500427246094,-134.6840057373047 -157.89500427246094,-134.6840057373047 C-157.89500427246094,-134.6840057373047 -158.31399536132812,-182.8990020751953 -158.31399536132812,-182.8990020751953 C-158.31399536132812,-182.8990020751953 -158.37399291992188,-182.8990020751953 -158.37399291992188,-182.8990020751953 C-158.37399291992188,-182.8990020751953 -156.35899353027344,-305.30999755859375 -156.35899353027344,-305.30999755859375 C-156.35899353027344,-305.30999755859375 155.5019989013672,-103.697998046875 155.5019989013672,-103.697998046875 C155.5019989013672,-103.697998046875 156.57899475097656,8.585000038146973 156.57899475097656,8.585000038146973 C156.57899475097656,8.585000038146973 157.3560028076172,82.16300201416016 157.3560028076172,82.16300201416016 C157.3560028076172,82.16300201416016 159.50999450683594,303.0780029296875 159.50999450683594,303.0780029296875z"></path></g></g><g transform="matrix(1.1606379747390747,0,0,1.1604059934616089,934.3836059570312,813.4115600585938)" opacity="0.2" style="mix-blend-mode: multiply; display: block;"><g opacity="1" transform="matrix(1,0,0,1,0,0)" style="mix-blend-mode: multiply;"><path fill="rgb(229,154,3)" fill-opacity="1" d=" M-193.92599487304688,114.27100372314453 C-193.92599487304688,114.27100372314453 -194.70399475097656,40.69200134277344 -194.70399475097656,40.69200134277344 C-194.70399475097656,40.69200134277344 193.85699462890625,-114.27100372314453 193.85699462890625,-114.27100372314453 C193.85699462890625,-114.27100372314453 194.70399475097656,-73.14600372314453 194.70399475097656,-73.14600372314453 C194.70399475097656,-73.14600372314453 -193.92599487304688,114.27100372314453 -193.92599487304688,114.27100372314453z"></path></g></g><g transform="matrix(1.1606379747390747,0,0,1.1604059934616089,526.1163940429688,792.2213745117188)" opacity="0.3" style="mix-blend-mode: multiply; display: block;"><g opacity="1" transform="matrix(1,0,0,1,0,0)" style="mix-blend-mode: multiply;"><path fill="rgb(255,176,0)" fill-opacity="1" d=" M157.8350067138672,132.531005859375 C157.8350067138672,132.531005859375 -157.41600036621094,-84.31600189208984 -157.41600036621094,-84.31600189208984 C-157.41600036621094,-84.31600189208984 -157.8350067138672,-132.531005859375 -157.8350067138672,-132.531005859375 C-157.8350067138672,-132.531005859375 155.97999572753906,30.357999801635742 155.97999572753906,30.357999801635742 C155.97999572753906,30.357999801635742 157.0570068359375,58.95199966430664 157.0570068359375,58.95199966430664 C157.0570068359375,58.95199966430664 157.8350067138672,132.531005859375 157.8350067138672,132.531005859375z"></path></g></g><g transform="matrix(1.1606379747390747,0,0,1.1604059934616089,508.93084716796875,682.9146118164062)" opacity="1" style="display: block;"><g opacity="1" transform="matrix(1,0,0,1,0,0)"><path fill="rgb(255,206,0)" fill-opacity="1" d=" M-172.1529998779297,-180.45700073242188 C-172.1529998779297,-180.45700073242188 170.81500244140625,40.87699890136719 170.81500244140625,40.87699890136719 C170.81500244140625,40.87699890136719 172.1529998779297,180.45700073242188 172.1529998779297,180.45700073242188 C172.1529998779297,180.45700073242188 -172.1529998779297,-24.924999237060547 -172.1529998779297,-24.924999237060547 C-172.1529998779297,-24.924999237060547 -172.1529998779297,-180.45700073242188 -172.1529998779297,-180.45700073242188z"></path></g></g><g transform="matrix(1.1606379747390747,0,0,1.1604059934616089,949.0308227539062,704.8961791992188)" opacity="1" style="display: block;"><g opacity="1" transform="matrix(1,0,0,1,0,0)"><path fill="rgb(211,136,2)" fill-opacity="1" d=" M-208.3730010986328,21.93400001525879 C-208.3730010986328,21.93400001525879 208.3730010986328,-161.51400756835938 208.3730010986328,-161.51400756835938 C208.3730010986328,-161.51400756835938 208.3730010986328,-23.92799949645996 208.3730010986328,-23.92799949645996 C208.3730010986328,-23.92799949645996 -207.03500366210938,161.51400756835938 -207.03500366210938,161.51400756835938 C-207.03500366210938,161.51400756835938 -208.3730010986328,21.93400001525879 -208.3730010986328,21.93400001525879z"></path></g></g><g transform="matrix(1.1606379747390747,0,0,1.1604059934616089,750,521.9906616210938)" opacity="1" style="display: block;"><g opacity="1" transform="matrix(1,0,0,1,0,0)"><path fill="rgb(255,176,0)" fill-opacity="1" d=" M-379.85699462890625,-41.77799987792969 C-379.85699462890625,-41.77799987792969 30.906999588012695,-179.55599975585938 30.906999588012695,-179.55599975585938 C30.906999588012695,-179.55599975585938 379.85699462890625,-3.8919999599456787 379.85699462890625,-3.8919999599456787 C379.85699462890625,-3.8919999599456787 -36.888999938964844,179.55599975585938 -36.888999938964844,179.55599975585938 C-36.888999938964844,179.55599975585938 -379.85699462890625,-41.77799987792969 -379.85699462890625,-41.77799987792969z"></path></g></g><g style="display: block;"><g transform="matrix(1.1606379747390747,0,0,1.1604059934616089,942.26318359375,864.6620483398438)" opacity="1"><g opacity="1" transform="matrix(1,0,0,1,0,0)"><path fill="rgb(255,0,0)" fill-opacity="1" d=" M-62.117000579833984,-177.56100463867188 C-62.117000579833984,-177.56100463867188 -62.987998962402344,391.1340026855469 -62.987998962402344,391.1340026855469 C-62.987998962402344,391.1340026855469 55.85900115966797,339.93798828125 55.85900115966797,339.93798828125 C55.85900115966797,339.93798828125 62.99399948120117,-232.63400268554688 62.99399948120117,-232.63400268554688 C62.99399948120117,-232.63400268554688 -62.117000579833984,-177.56100463867188 -62.117000579833984,-177.56100463867188z"></path></g></g></g><g style="display: block;"><g transform="matrix(1.1606379747390747,0,0,1.1604059934616089,497.0633239746094,830.2478637695312)" opacity="1"><g opacity="1" transform="matrix(1,0,0,1,0,0)"><path fill="rgb(255,0,0)" fill-opacity="1" d=" M-52.707000732421875,-236.93800354003906 C-52.707000732421875,-236.93800354003906 51.382999420166016,-169.76400756835938 51.382999420166016,-169.76400756835938 C51.382999420166016,-169.76400756835938 52.48400115966797,382.93798828125 52.48400115966797,382.93798828125 C52.48400115966797,382.93798828125 -41.47200012207031,323.47198486328125 -41.47200012207031,323.47198486328125 C-41.47200012207031,323.47198486328125 -52.707000732421875,-236.93800354003906 -52.707000732421875,-236.93800354003906z"></path></g></g></g><g transform="matrix(1.1606379747390747,0,0,1.1604059934616089,741.0340576171875,486.065673828125)" opacity="1" style="display: block;"><g opacity="1" transform="matrix(1,0,0,1,0,0)"><path fill="rgb(204,2,2)" fill-opacity="1" d=" M53.36000061035156,-11.246999740600586 C53.36000061035156,27.156999588012695 28.952999114990234,58.32400131225586 -1.1959999799728394,58.32400131225586 C-25.66200065612793,58.32400131225586 -46.42100143432617,37.74599838256836 -53.36000061035156,9.451000213623047 C-43.369998931884766,23.209999084472656 -29.07200050354004,31.882999420166016 -13.15999984741211,31.882999420166016 C16.98900032043457,31.882999420166016 41.395999908447266,0.7770000100135803 41.395999908447266,-37.62699890136719 C41.395999908447266,-44.80500030517578 40.55799865722656,-51.80500030517578 38.94300079345703,-58.32400131225586 C47.91600036621094,-45.941001892089844 53.36000061035156,-29.37299919128418 53.36000061035156,-11.246999740600586z"></path></g></g><g transform="matrix(1.1606379747390747,0,0,1.1604059934616089,746.8186645507812,508.13079833984375)" opacity="1" style="display: block;"><g opacity="1" transform="matrix(1,0,0,1,0,0)"><path fill="rgb(255,0,0)" fill-opacity="1" d=" M-267.8940124511719,40.652000427246094 C-267.8940124511719,40.652000427246094 152.41200256347656,-107.82599639892578 152.41200256347656,-107.82599639892578 C152.41200256347656,-107.82599639892578 267.8940124511719,-49.691001892089844 267.8940124511719,-49.691001892089844 C267.8940124511719,-49.691001892089844 -163.80499267578125,107.82599639892578 -163.80499267578125,107.82599639892578 C-163.80499267578125,107.82599639892578 -267.8940124511719,40.652000427246094 -267.8940124511719,40.652000427246094z"></path></g></g><g transform="matrix(1.1606379747390747,0,0,1.1604059934616089,747.9421997070312,512.8965454101562)" opacity="1" style="display: block;"><g opacity="1" transform="matrix(1,0,0,1,0,0)"><path fill="rgb(255,0,0)" fill-opacity="1" d=" M105.30899810791016,125.5790023803711 C105.30899810791016,125.5790023803711 230.4199981689453,70.50599670410156 230.4199981689453,70.50599670410156 C230.4199981689453,70.50599670410156 -104.87699890136719,-125.5790023803711 -104.87699890136719,-125.5790023803711 C-104.87699890136719,-125.5790023803711 -230.4199981689453,-83.47000122070312 -230.4199981689453,-83.47000122070312 C-230.4199981689453,-83.47000122070312 105.30899810791016,125.5790023803711 105.30899810791016,125.5790023803711z"></path></g></g><g transform="matrix(1.1606379747390747,0,0,1.1604059934616089,814.3434448242188,855.7466430664062)" opacity="1" style="display: block;"><g opacity="1" transform="matrix(1,0,0,1,0,0)"><path fill="rgb(153,0,0)" fill-opacity="1" d=" M-64.36900329589844,-240.31700134277344 C-64.36900329589844,-240.31700134277344 48.097999572753906,-169.8780059814453 48.097999572753906,-169.8780059814453 C48.097999572753906,-169.8780059814453 47.22100067138672,240.31700134277344 47.22100067138672,240.31700134277344 C47.22100067138672,240.31700134277344 64.36900329589844,-177.04100036621094 64.36900329589844,-177.04100036621094 C64.36900329589844,-177.04100036621094 -64.36900329589844,-240.31700134277344 -64.36900329589844,-240.31700134277344z"></path></g></g><g transform="matrix(1.1606379747390747,0,0,1.1604059934616089,993.7931518554688,822.57763671875)" opacity="1" style="display: block;"><g opacity="1" transform="matrix(1,0,0,1,0,0)"><path fill="rgb(153,0,0)" fill-opacity="1" d=" M11.454999923706055,217.7050018310547 C11.454999923706055,217.7050018310547 18.59600067138672,-196.36700439453125 18.59600067138672,-196.36700439453125 C18.59600067138672,-196.36700439453125 -18.59600067138672,-217.7050018310547 -18.59600067138672,-217.7050018310547 C-18.59600067138672,-217.7050018310547 11.192999839782715,-192.9810028076172 11.192999839782715,-192.9810028076172 C11.192999839782715,-192.9810028076172 11.454999923706055,217.7050018310547 11.454999923706055,217.7050018310547z"></path></g></g><g transform="matrix(1.1606379747390747,0,0,1.1604059934616089,629.6441650390625,838.9868774414062)" opacity="1" style="display: block;"><g opacity="1" transform="matrix(1,0,0,1,0,0)"><path fill="rgb(153,0,0)" fill-opacity="1" d=" M-61.525001525878906,229.406005859375 C-61.525001525878906,229.406005859375 -62.847999572753906,-177.29600524902344 -62.847999572753906,-177.29600524902344 C-62.847999572753906,-177.29600524902344 77.56900024414062,-229.406005859375 77.56900024414062,-229.406005859375 C77.56900024414062,-229.406005859375 -77.56900024414062,-188.2790069580078 -77.56900024414062,-188.2790069580078 C-77.56900024414062,-188.2790069580078 -61.525001525878906,229.406005859375 -61.525001525878906,229.406005859375z"></path></g></g><g transform="matrix(1.1606379747390747,0,0,1.1604059934616089,456.57562255859375,788.4396362304688)" opacity="1" style="display: block;"><g opacity="1" transform="matrix(1,0,0,1,0,0)"><path fill="rgb(153,0,0)" fill-opacity="1" d=" M17.822999954223633,-213.50100708007812 C17.822999954223633,-213.50100708007812 -17.822999954223633,-200.90899658203125 -17.822999954223633,-200.90899658203125 C-17.822999954223633,-200.90899658203125 -6.366000175476074,213.50100708007812 -6.366000175476074,213.50100708007812 C-6.366000175476074,213.50100708007812 -9.609999656677246,-196.56199645996094 -9.609999656677246,-196.56199645996094 C-9.609999656677246,-196.56199645996094 17.822999954223633,-213.50100708007812 17.822999954223633,-213.50100708007812z"></path></g></g><g transform="matrix(1.160636305809021,-0.001973280217498541,0.0019736746326088905,1.1604043245315552,736.6304931640625,463.5122375488281)" opacity="1" style="display: block;"><g opacity="1" transform="matrix(1,0,0,1,0,0)"><path fill="rgb(153,0,0)" fill-opacity="1" d=" M-31.39699935913086,-26.232999801635742 C-63.07400131225586,-52.992000579833984 -131.83799743652344,-106.10600280761719 -170.10899353027344,-98.22699737548828 C-220.22500610351562,-87.90899658203125 -252.9029998779297,53.15800094604492 -205.14500427246094,90.1449966430664 C-204.45599365234375,90.68399810791016 -203.75,91.2030029296875 -203.02999877929688,91.697998046875 C-201.03799438476562,93.04299926757812 -198.7949981689453,94.177001953125 -196.33900451660156,95.1259994506836 C-161.58599853515625,108.58799743652344 -83.04399871826172,83.99500274658203 -41.50400161743164,69.0510025024414 C-38.715999603271484,53.784000396728516 -32.35300064086914,-12.873000144958496 -31.39699935913086,-26.232999801635742z"></path></g></g><g transform="matrix(1.160636305809021,0.001973280217498541,-0.0019736746326088905,1.1604043245315552,736.552978515625,463.5110778808594)" opacity="1" style="display: block;"><g opacity="1" transform="matrix(1,0,0,1,0,0)"><path fill="rgb(153,0,0)" fill-opacity="1" d=" M182.46299743652344,-92.88899993896484 C182.47799682617188,-92.8949966430664 182.49400329589844,-92.9010009765625 182.50900268554688,-92.90699768066406 C179.35899353027344,-95.00700378417969 176.05499267578125,-96.56500244140625 172.69000244140625,-97.56800079345703 C172.552001953125,-97.60900115966797 172.41400146484375,-97.6500015258789 172.2760009765625,-97.68900299072266 C171.56199645996094,-97.89199829101562 170.8459930419922,-98.0780029296875 170.1269989013672,-98.2300033569336 C165.35499572753906,-99.21299743652344 160.10899353027344,-99.24600219726562 154.5189971923828,-98.5009994506836 C116.55799865722656,-93.4530029296875 62.76300048828125,-52.457000732421875 34.189998626708984,-28.58099937438965 C25.275999069213867,-36.64899826049805 41.94499969482422,59.27799987792969 45.834999084472656,70.59600067138672 C56.715999603271484,74.44400024414062 69.69100189208984,78.78099822998047 83.54900360107422,82.89099884033203 C83.59600067138672,82.90499877929688 83.64299774169922,82.91799926757812 83.69000244140625,82.93199920654297 C84.80799865722656,83.26399993896484 85.93199920654297,83.59400177001953 87.06099700927734,83.9219970703125 C87.15299987792969,83.9489974975586 87.24600219726562,83.9749984741211 87.33799743652344,84.00199890136719 C88.447998046875,84.3239974975586 89.56099700927734,84.64299774169922 90.68000030517578,84.96099853515625 C90.76699829101562,84.98600006103516 90.8550033569336,85.01000213623047 90.94200134277344,85.03500366210938 C92.0770034790039,85.35700225830078 93.21499633789062,85.677001953125 94.35800170898438,85.99400329589844 C94.39900207519531,86.00499725341797 94.43900299072266,86.01599884033203 94.4800033569336,86.0270004272461 C102.8489990234375,88.34500122070312 111.40699768066406,90.51599884033203 119.91200256347656,92.39700317382812 C120.0199966430664,92.4209976196289 120.12999725341797,92.44599914550781 120.23799896240234,92.47000122070312 C121.3270034790039,92.70999908447266 122.41400146484375,92.94300079345703 123.5,93.1729965209961 C123.6719970703125,93.20899963378906 123.84400177001953,93.24700164794922 124.01499938964844,93.28299713134766 C125.0739974975586,93.50599670410156 126.12999725341797,93.72100067138672 127.18499755859375,93.93399810791016 C127.3759994506836,93.97200012207031 127.56700134277344,94.01100158691406 127.75700378417969,94.04900360107422 C128.81199645996094,94.26000213623047 129.86500549316406,94.46499633789062 130.91600036621094,94.66500091552734 C131.09100341796875,94.697998046875 131.26600646972656,94.73100280761719 131.4409942626953,94.76399993896484 C132.51199340820312,94.96600341796875 133.57899475097656,95.16300201416016 134.64300537109375,95.35299682617188 C134.7830047607422,95.37799835205078 134.9219970703125,95.4020004272461 135.06199645996094,95.427001953125 C136.16799926757812,95.62300109863281 137.27000427246094,95.81300354003906 138.3679962158203,95.99500274658203 C138.43099975585938,96.00499725341797 138.49400329589844,96.01499938964844 138.5570068359375,96.0250015258789 C165.3979949951172,100.46099853515625 189.71400451660156,100.69400024414062 203.00799560546875,91.70099639892578 C249.5959930419922,60.185001373291016 225.87399291992188,-64.21600341796875 182.46299743652344,-92.88899993896484z"></path></g></g><g transform="matrix(1.1606379747390747,0,0,1.1604059934616089,736.5911254882812,463.5410461425781)" opacity="1" style="display: block;"><g opacity="1" transform="matrix(1,0,0,1,0,0)"><path fill="rgb(153,0,0)" fill-opacity="1" d=" M34.189998626708984,-28.58099937438965 C25.275999069213867,-36.64899826049805 14.388999938964844,-41.40800094604492 2.621999979019165,-41.40800094604492 C-10.246000289916992,-41.40800094604492 -22.065000534057617,-35.72200012207031 -31.39699935913086,-26.232999801635742 C-42.74599838256836,-2.325000047683716 -48.685001373291016,31.788999557495117 -41.50400161743164,69.0510025024414 C-31.577999114990234,86.39399719238281 -15.515999794006348,97.6729965209961 2.621999979019165,97.6729965209961 C20.21500015258789,97.6729965209961 35.85200119018555,87.05899810791016 45.834999084472656,70.59600067138672 C45.4900016784668,45.255001068115234 42.09600067138672,-8.609000205993652 34.189998626708984,-28.58099937438965z"></path></g></g><g transform="matrix(1.160636305809021,0.001973280217498541,-0.0019736746326088905,1.1604043245315552,877.6201171875,440.6112060546875)" opacity="1" style="display: block;"><g opacity="1" transform="matrix(1,0,0,1,0,0)"><path fill="rgb(255,0,0)" fill-opacity="1" d=" M-106.93399810791016,-11.491999626159668 C-106.93399810791016,-11.491999626159668 -2.249000072479248,-108.697998046875 48.597999572753906,-98.2300033569336 C99.44499969482422,-87.76200103759766 132.3459930419922,57.301998138427734 81.4990005493164,91.697998046875 C40.266998291015625,119.58999633789062 -106.93399810791016,58.797000885009766 -106.93399810791016,58.797000885009766 C-106.93399810791016,58.797000885009766 -106.93399810791016,-11.491999626159668 -106.93399810791016,-11.491999626159668z"></path></g></g><g transform="matrix(1.160636305809021,0.001973280217498541,-0.0019736746326088905,1.1604043245315552,856.2179565429688,440.5655517578125)" opacity="1" style="display: block;"><g opacity="1" transform="matrix(1,0,0,1,0,0)"><path fill="rgb(204,2,2)" fill-opacity="1" d=" M88.4739990234375,96.66600036621094 C36.611000061035156,110.48500061035156 -88.4739990234375,58.80099868774414 -88.4739990234375,58.80099868774414 C-88.4739990234375,58.80099868774414 -88.4739990234375,-11.487000465393066 -88.4739990234375,-11.487000465393066 C-88.4739990234375,-11.487000465393066 16.211000442504883,-108.69400024414062 67.05799865722656,-98.22599792480469 C71.30500030517578,-97.3290023803711 75.49299621582031,-95.53500366210938 79.44100189208984,-92.90299987792969 C26.73900032043457,-73.10199737548828 -39.599998474121094,-11.487000465393066 -39.599998474121094,-11.487000465393066 C-39.599998474121094,-11.487000465393066 -39.599998474121094,58.80099868774414 -39.599998474121094,58.80099868774414 C-39.599998474121094,58.80099868774414 31.285999298095703,88.052001953125 88.4739990234375,96.66600036621094z"></path></g></g><g transform="matrix(1.160636305809021,-0.001973280217498541,0.0019736746326088905,1.1604043245315552,595.5621948242188,440.6112060546875)" opacity="1" style="display: block;"><g opacity="1" transform="matrix(1,0,0,1,0,0)"><path fill="rgb(255,0,0)" fill-opacity="1" d=" M106.93399810791016,-11.491999626159668 C106.93399810791016,-11.491999626159668 2.249000072479248,-108.697998046875 -48.597999572753906,-98.2300033569336 C-99.44499969482422,-87.76200103759766 -132.3459930419922,57.301998138427734 -81.4990005493164,91.697998046875 C-40.266998291015625,119.58999633789062 106.93399810791016,58.797000885009766 106.93399810791016,58.797000885009766 C106.93399810791016,58.797000885009766 106.93399810791016,-11.491999626159668 106.93399810791016,-11.491999626159668z"></path></g></g><g transform="matrix(1.160636305809021,-0.001973280217498541,0.0019736746326088905,1.1604043245315552,605.7536010742188,442.57122802734375)" opacity="1" style="display: block;"><g opacity="1" transform="matrix(1,0,0,1,0,0)"><path fill="rgb(204,2,2)" fill-opacity="1" d=" M98.13500213623047,-13.199000358581543 C98.13500213623047,-13.199000358581543 98.13500213623047,57.09000015258789 98.13500213623047,57.09000015258789 C98.13500213623047,57.09000015258789 -49.02299880981445,117.86699676513672 -90.2979965209961,89.99099731445312 C-93.16899871826172,88.01599884033203 -95.802001953125,85.68399810791016 -98.13500213623047,83.0510025024414 C-41.06700134277344,87.35800170898438 66.01200103759766,43.1510009765625 66.01200103759766,43.1510009765625 C66.01200103759766,43.1510009765625 66.01200103759766,-27.136999130249023 66.01200103759766,-27.136999130249023 C66.01200103759766,-27.136999130249023 17.916000366210938,-71.822998046875 -28.92300033569336,-97.30599975585938 C24.795000076293945,-81.2750015258789 98.13500213623047,-13.199000358581543 98.13500213623047,-13.199000358581543z"></path></g></g><g transform="matrix(1.1602897644042969,0,0,1.1600579023361206,739.635498046875,473.04241943359375)" opacity="1" style="display: block;"><g opacity="1" transform="matrix(1,0,0,1,0,0)"><path fill="rgb(255,0,0)" fill-opacity="1" d=" M54.58599853515625,0 C54.58599853515625,38.40599822998047 30.14699935913086,69.54100036621094 0,69.54100036621094 C-30.14699935913086,69.54100036621094 -54.58599853515625,38.40599822998047 -54.58599853515625,0 C-54.58599853515625,-38.40599822998047 -30.14699935913086,-69.54100036621094 0,-69.54100036621094 C30.14699935913086,-69.54100036621094 54.58599853515625,-38.40599822998047 54.58599853515625,0z"></path></g></g><g transform="matrix(1.160636305809021,-0.001973280217498541,0.0019736746326088905,1.1604043245315552,526.0206909179688,384.9637145996094)" opacity="0.3" style="display: block;"><g opacity="1" transform="matrix(1,0,0,1,0,0)"><path fill="rgb(255,255,255)" fill-opacity="1" d=" M14.765999794006348,5.511000156402588 C7.406000137329102,25.229999542236328 -5.171000003814697,38.74800109863281 -13.326000213623047,35.70399856567383 C-21.481000900268555,32.65999984741211 -22.125999450683594,14.208000183105469 -14.765999794006348,-5.511000156402588 C-7.406000137329102,-25.229999542236328 5.171000003814697,-38.74800109863281 13.326000213623047,-35.70399856567383 C21.481000900268555,-32.65999984741211 22.125999450683594,-14.208000183105469 14.765999794006348,5.511000156402588z"></path></g></g><g transform="matrix(1.160636305809021,0.001973280217498541,-0.0019736746326088905,1.1604043245315552,957.9873046875,380.64337158203125)" opacity="0.3" style="display: block;"><g opacity="1" transform="matrix(1,0,0,1,0,0)"><path fill="rgb(255,255,255)" fill-opacity="1" d=" M-5.507999897003174,2.7019999027252197 C-11.795000076293945,-10.114999771118164 -14.425999641418457,-21.71500015258789 -11.383999824523926,-23.207000732421875 C-8.342000007629395,-24.698999404907227 -0.7789999842643738,-15.519000053405762 5.507999897003174,-2.7019999027252197 C11.795000076293945,10.114999771118164 14.425999641418457,21.71500015258789 11.383999824523926,23.207000732421875 C8.342000007629395,24.698999404907227 0.7789999842643738,15.519000053405762 -5.507999897003174,2.7019999027252197z"></path></g></g><g transform="matrix(1.1606379747390747,0,0,1.1604059934616089,707.1852416992188,440.39208984375)" opacity="0.2" style="display: block;"><g opacity="1" transform="matrix(1,0,0,1,0,0)"><path fill="rgb(255,255,255)" fill-opacity="1" d=" M8.774999618530273,4.25 C3.0989999771118164,15.968000411987305 -5.431000232696533,23.565000534057617 -10.277000427246094,21.218000411987305 C-15.123000144958496,18.871000289916992 -14.451000213623047,7.4679999351501465 -8.774999618530273,-4.25 C-3.0989999771118164,-15.968000411987305 5.431000232696533,-23.565000534057617 10.277000427246094,-21.218000411987305 C15.123000144958496,-18.871000289916992 14.451000213623047,-7.4679999351501465 8.774999618530273,4.25z"></path></g></g></g></svg>